HIERARCHY
ROOT Hips
{
	OFFSET -0.001795 -0.223333 0.028219
	CHANNELS 6 Xposition Yposition Zposition Zrotation Yrotation Xrotation 
	JOINT LeftUpLeg
	{
		OFFSET 0.069520 -0.091406 -0.006815
		CHANNELS 3 Zrotation Yrotation Xrotation
		JOINT LeftLeg
		{
			OFFSET 0.034277 -0.375199 -0.004496
			CHANNELS 3 Zrotation Yrotation Xrotation
			JOINT LeftFoot
			{
				OFFSET -0.013596 -0.397961 -0.043693
				CHANNELS 3 Zrotation Yrotation Xrotation
				JOINT LeftToe
				{
					OFFSET 0.026358 -0.055791 0.119288
					CHANNELS 3 Zrotation Yrotation Xrotation
					End Site
					{
						OFFSET 0.000000 0.000000 0.000000
					}
				}
			}
		}
	}
	JOINT RightUpLeg
	{
		OFFSET -0.067670 -0.090522 -0.004320
		CHANNELS 3 Zrotation Yrotation Xrotation
		JOINT RightLeg
		{
			OFFSET -0.038290 -0.382569 -0.008850
			CHANNELS 3 Zrotation Yrotation Xrotation
			JOINT RightFoot
			{
				OFFSET 0.015774 -0.398415 -0.042312
				CHANNELS 3 Zrotation Yrotation Xrotation
				JOINT RightToe
				{
					OFFSET -0.025372 -0.048144 0.123348
					CHANNELS 3 Zrotation Yrotation Xrotation
					End Site
					{
						OFFSET 0.000000 0.000000 0.000000
					}
				}
			}
		}
	}
	JOINT Spine
	{
		OFFSET -0.002533 0.108963 -0.026696
		CHANNELS 3 Zrotation Yrotation Xrotation
		JOINT Spine1
		{
			OFFSET 0.005487 0.135180 0.001092
			CHANNELS 3 Zrotation Yrotation Xrotation
			JOINT Spine2
			{
				OFFSET 0.001457 0.052922 0.025425
				CHANNELS 3 Zrotation Yrotation Xrotation
				JOINT Neck
				{
					OFFSET -0.002778 0.213870 -0.042857
					CHANNELS 3 Zrotation Yrotation Xrotation
					JOINT Head
					{
						OFFSET 0.005152 0.064970 0.051349
						CHANNELS 3 Zrotation Yrotation Xrotation
						End Site
						{
							OFFSET 0.000000 0.000000 0.000000
						}
					}
				}
				JOINT LeftShoulder
				{
					OFFSET 0.078845 0.121749 -0.034090
					CHANNELS 3 Zrotation Yrotation Xrotation
					JOINT LeftArm
					{
						OFFSET 0.090977 0.030469 -0.008868
						CHANNELS 3 Zrotation Yrotation Xrotation
						JOINT LeftForeArm
						{
							OFFSET 0.259612 -0.012772 -0.027456
							CHANNELS 3 Zrotation Yrotation Xrotation
							JOINT LeftHand
							{
								OFFSET 0.249234 0.008986 -0.001171
								CHANNELS 3 Zrotation Yrotation Xrotation
								End Site
								{
									OFFSET 0.000000 0.000000 0.000000
								}
							}
						}
					}
				}
				JOINT RightShoulder
				{
					OFFSET -0.081759 0.118833 -0.038615
					CHANNELS 3 Zrotation Yrotation Xrotation
					JOINT RightArm
					{
						OFFSET -0.096012 0.032551 -0.009143
						CHANNELS 3 Zrotation Yrotation Xrotation
						JOINT RightForeArm
						{
							OFFSET -0.253742 -0.013329 -0.021401
							CHANNELS 3 Zrotation Yrotation Xrotation
							JOINT RightHand
							{
								OFFSET -0.255298 0.007772 -0.005559
								CHANNELS 3 Zrotation Yrotation Xrotation
								End Site
								{
									OFFSET 0.000000 0.000000 0.000000
								}
							}
						}
					}
				}
			}
		}
	}
}
MOTION
Frames: 13
Frame Time: 0.050000
0.000000 0.804016 0.000000 5.260233 -25.247918 -3.474140 5.521968 4.354010 -49.000254 -4.176902 4.152286 38.411509 1.263684 4.789203 13.174900 0.000000 0.000000 0.000000 -1.057526 4.206155 -28.172412 8.971857 5.103930 57.146670 -11.347949 -28.147151 -19.601037 0.000000 0.000000 0.000000 8.469149 0.687241 54.970102 -8.429203 1.986531 -29.424163 -4.851132 5.469160 29.437218 11.801943 -6.326484 -25.947019 0.000000 0.000000 0.000000 -22.577744 -8.934483 5.379606 -42.911665 5.066844 -9.563779 -22.970279 -52.734701 15.171444 0.000000 0.000000 0.000000 26.278797 3.039756 -0.931045 47.608613 -6.374692 -9.376964 30.895362 48.739345 16.138633 0.000000 0.000000 0.000000 
-0.006943 0.800359 0.021412 3.670302 -25.798240 -1.470499 6.495543 4.856468 -48.112043 -4.391556 4.317401 38.021191 -2.714913 -0.007794 17.025018 0.000000 0.000000 0.000000 -0.115306 4.954316 -30.265839 11.484919 4.352775 61.440244 -11.160541 -28.222998 -14.830281 0.000000 0.000000 0.000000 8.566571 0.712058 55.160848 -7.714328 1.712944 -31.630711 -3.140549 7.237710 29.561476 10.202442 -4.221909 -30.718176 0.000000 0.000000 0.000000 -26.760174 -8.631013 4.949083 -37.807114 5.202483 -8.321557 -28.060085 -49.555742 15.983579 0.000000 0.000000 0.000000 26.148712 1.120575 -1.537676 47.540436 -7.778280 -10.006392 34.191805 48.411354 17.877962 0.000000 0.000000 0.000000 
-0.013356 0.797968 0.045477 4.404323 -24.820456 -1.033428 4.191133 3.648280 -49.436205 -3.338855 4.363918 42.731152 -4.621990 -2.212893 17.649608 0.000000 0.000000 0.000000 -0.924142 4.263660 -28.341247 11.449648 4.406964 62.749521 -10.598723 -26.171741 -19.564349 0.000000 0.000000 0.000000 8.051371 0.599531 53.901464 -8.730469 1.919931 -31.489360 -3.868456 4.958634 29.146325 10.524991 -4.930008 -29.866980 0.000000 0.000000 0.000000 -25.799641 -6.847542 4.567578 -39.894617 6.915864 -9.444745 -30.338567 -48.078145 16.959599 0.000000 0.000000 0.000000 27.795962 0.729104 -2.855004 44.771582 -9.315321 -9.607479 38.164160 45.179663 17.710290 0.000000 0.000000 0.000000 
-0.019222 0.798980 0.072448 4.789435 -27.242922 -0.753806 1.984870 3.100326 -49.405956 -0.875367 4.144000 47.256367 -2.733121 -0.622160 14.393006 0.000000 0.000000 0.000000 -0.893871 4.645027 -29.374364 12.873549 4.947824 66.832666 -10.887820 -27.394142 -13.194091 0.000000 0.000000 0.000000 6.982913 1.779361 53.854382 -8.179916 1.782917 -34.072311 -4.330864 6.915214 32.693768 10.454993 -4.559873 -31.734375 0.000000 0.000000 0.000000 -24.828338 -7.217628 4.681805 -40.264939 6.074872 -9.511287 -31.864998 -46.495684 17.045985 0.000000 0.000000 0.000000 27.604051 1.023688 -2.245179 45.890810 -8.324135 -9.936002 35.803440 44.663404 16.707915 0.000000 0.000000 0.000000 
-0.024899 0.800232 0.101338 4.625037 -27.944873 0.697282 0.720917 2.989998 -51.340932 0.017682 4.638629 53.632236 0.693246 3.193004 8.067867 0.000000 0.000000 0.000000 -2.281799 4.649501 -30.304916 15.362192 3.688716 69.627443 -10.216876 -25.760930 -9.848625 0.000000 0.000000 0.000000 5.672723 2.217495 51.500160 -9.681795 2.022550 -32.027907 -3.441654 6.007304 31.300484 9.838286 -4.683083 -30.052030 0.000000 0.000000 0.000000 -25.978430 -7.776675 5.595338 -39.057664 6.402279 -9.279185 -31.734743 -45.900413 16.709467 0.000000 0.000000 0.000000 28.294441 0.896314 -3.150201 43.677410 -9.594311 -9.461890 38.187495 46.127569 17.950237 0.000000 0.000000 0.000000 
-0.030784 0.800766 0.130832 3.877751 -28.198635 1.377998 -0.301302 2.586320 -51.835117 3.025071 3.348234 58.938418 -0.380257 0.456854 4.014123 0.000000 0.000000 0.000000 -4.177088 5.314551 -34.490155 20.596688 -0.315252 76.948031 -9.870001 -24.959083 2.207225 0.000000 0.000000 0.000000 5.224669 2.392891 51.030018 -10.295886 2.172386 -31.220519 -3.013698 5.248273 30.987849 9.629560 -4.395406 -31.688270 0.000000 0.000000 0.000000 -25.701104 -7.743694 5.897024 -41.014448 6.597800 -9.830972 -28.314776 -44.902437 14.987621 0.000000 0.000000 0.000000 26.774486 0.610542 -3.485432 44.933262 -10.591477 -9.978680 38.410311 47.055051 18.263665 0.000000 0.000000 0.000000 
-0.038160 0.802882 0.160599 2.254689 -28.184227 1.147343 -0.186426 2.431563 -50.546669 4.359782 3.263345 64.092982 1.190570 2.292522 -0.106731 0.000000 0.000000 0.000000 -7.307039 6.356796 -41.609941 26.515025 -7.171709 82.250741 -9.411672 -22.561582 21.208473 0.000000 0.000000 0.000000 4.468186 2.923280 52.292222 -9.096853 1.910298 -31.146669 -1.944053 5.521710 31.295728 9.315555 -4.100276 -31.871346 0.000000 0.000000 0.000000 -26.052079 -7.849791 5.804354 -42.582000 6.542683 -10.161504 -27.923426 -44.061260 14.562573 0.000000 0.000000 0.000000 26.471373 0.161064 -3.490731 45.394313 -11.084109 -10.333760 35.230154 47.156959 16.959078 0.000000 0.000000 0.000000 
-0.048115 0.800733 0.191750 0.272552 -27.265546 0.982465 0.500656 2.272813 -49.208266 5.522261 2.693829 68.431448 1.830022 2.915157 -2.512003 0.000000 0.000000 0.000000 -10.372483 7.105277 -49.075625 30.005049 -12.274980 79.903564 -11.945201 -25.427660 28.413927 0.000000 0.000000 0.000000 5.759693 2.173449 53.760438 -9.903690 2.084553 -30.630813 -1.649818 3.527309 30.889209 9.302071 -4.310311 -32.120974 0.000000 0.000000 0.000000 -26.504416 -7.473169 5.966197 -43.647960 7.364607 -10.779045 -27.739136 -43.413467 14.380653 0.000000 0.000000 0.000000 26.780047 -0.398885 -4.296155 44.919551 -13.589679 -10.984011 33.770557 47.149305 16.078041 0.000000 0.000000 0.000000 
-0.060306 0.798309 0.224505 -1.424757 -26.807710 -0.438368 1.725684 2.190415 -45.695123 6.124426 2.796812 70.584563 2.803192 4.804208 -3.176037 0.000000 0.000000 0.000000 -10.096579 8.116280 -52.991005 28.231597 -10.273993 72.624593 -11.597561 -27.721436 10.999387 0.000000 0.000000 0.000000 5.978144 2.156116 55.667574 -8.329476 1.779999 -29.778418 -2.100353 2.564397 30.086525 8.710130 -3.985078 -32.426829 0.000000 0.000000 0.000000 -27.030561 -6.710745 5.552198 -44.482540 7.296643 -10.980044 -28.040692 -40.568446 13.537551 0.000000 0.000000 0.000000 26.230601 -0.360152 -4.252741 44.354073 -15.627466 -11.502295 31.470137 45.175661 14.235862 0.000000 0.000000 0.000000 
-0.074269 0.793836 0.259152 -3.003323 -26.442297 -1.305219 2.715451 2.027572 -42.333400 7.338516 2.290266 72.966747 3.214071 5.118471 -5.356726 0.000000 0.000000 0.000000 -8.444591 8.714774 -53.078911 22.980225 -5.299565 58.371763 -8.920369 -23.691892 -5.982945 0.000000 0.000000 0.000000 7.627555 1.196009 56.044039 -8.510668 1.861881 -29.216567 -2.540604 1.055556 30.324016 7.821793 -3.835822 -32.052175 0.000000 0.000000 0.000000 -26.537337 -6.356796 5.663753 -46.870848 7.757053 -11.844574 -25.258679 -39.573094 12.258484 0.000000 0.000000 0.000000 25.334305 -0.801035 -4.720825 44.492097 -17.451738 -12.217620 29.639714 43.353159 12.684288 0.000000 0.000000 0.000000 
-0.090379 0.787725 0.295688 -3.568110 -27.001441 -2.003860 3.456612 1.796368 -37.942063 7.721548 3.049823 74.197020 4.370214 6.648482 -10.023002 0.000000 0.000000 0.000000 -5.419953 9.342406 -50.518853 12.947144 -0.129948 41.668919 -6.582312 -15.309073 -7.424793 0.000000 0.000000 0.000000 7.910475 1.194132 55.995441 -9.317146 2.041150 -28.888187 -1.722446 0.573065 30.490163 7.799072 -3.869886 -32.558227 0.000000 0.000000 0.000000 -25.915004 -4.857224 4.824319 -48.532046 7.925792 -12.314037 -26.086078 -38.849965 12.497644 0.000000 0.000000 0.000000 24.421105 -0.236913 -4.385902 46.957929 -18.752505 -13.544971 24.472431 41.424545 10.098751 0.000000 0.000000 0.000000 
-0.109073 0.779173 0.332710 -2.846089 -24.877405 -2.559216 2.479481 0.688941 -34.617454 7.528229 2.981523 75.878532 5.355638 7.812712 -15.213853 0.000000 0.000000 0.000000 -4.376815 8.785023 -48.725974 7.167217 1.002237 31.695083 -3.086471 -6.182655 -3.561675 0.000000 0.000000 0.000000 8.410535 0.247142 54.425283 -9.860348 2.281153 -28.206877 -2.135838 0.295320 30.353677 8.700802 -4.379322 -32.422096 0.000000 0.000000 0.000000 -25.620692 -4.845053 4.730721 -48.305411 8.826634 -12.567503 -27.076128 -38.830126 12.850072 0.000000 0.000000 0.000000 24.965291 -1.177281 -5.006660 47.876235 -20.171750 -14.402719 22.138682 39.123754 8.703370 0.000000 0.000000 0.000000 
-0.130125 0.768720 0.368381 -2.204353 -22.692233 -3.378671 2.399774 0.113016 -31.634886 8.080904 1.854053 78.532047 4.604953 3.803053 -18.662787 0.000000 0.000000 0.000000 -3.448290 8.650361 -48.545387 6.308605 1.463265 35.258273 -3.256416 -6.617008 -3.781934 0.000000 0.000000 0.000000 8.958744 -0.556105 54.793567 -9.284450 2.218458 -28.969877 -3.441003 1.326166 31.045537 10.282405 -4.992827 -32.321898 0.000000 0.000000 0.000000 -23.580489 -5.204929 4.200994 -49.697683 9.602985 -13.066396 -27.400739 -40.927826 13.700449 0.000000 0.000000 0.000000 25.519175 -1.508331 -4.663789 49.940109 -19.683709 -15.108179 20.657323 37.930189 8.188548 0.000000 0.000000 0.000000 
